<svg width="561" height="510" viewBox="0 0 561 510" fill="none" xmlns="http://www.w3.org/2000/svg">
<path fill-rule="evenodd" clip-rule="evenodd" d="M431.283 16.8488C499.536 55.186 513.889 142.71 532.546 218.666C551.216 294.674 583.992 382.437 536.305 444.413C489.799 504.854 397.145 483.035 321.456 493.008C259.049 501.232 196.85 523.377 139.806 496.661C77.05 467.27 26.4341 412.999 8.07266 346.237C-10.7317 277.865 4.28764 204.071 43.0215 144.753C80.5848 87.2278 144.461 58.8745 209.764 37.3619C282.954 13.2512 364.028 -20.9278 431.283 16.8488Z" fill="#3737FF"/>
<g clip-path="url(#clip0_59_7)">
<path d="M472.306 222.198H472.2L411.613 248.065L328.716 283.456C328.392 283.592 328.045 283.664 327.693 283.665C327.342 283.667 326.994 283.6 326.668 283.467L241.144 247.991L179.068 222.24L178.973 222.198H178.867C177.888 222.199 176.949 222.589 176.256 223.281C175.564 223.974 175.174 224.912 175.173 225.892V386.306C175.174 387.285 175.564 388.224 176.256 388.917C176.949 389.609 177.888 389.999 178.867 390H472.306C473.285 389.999 474.224 389.609 474.917 388.917C475.61 388.224 475.999 387.285 476 386.306V225.892C475.999 224.912 475.61 223.974 474.917 223.281C474.224 222.589 473.285 222.199 472.306 222.198Z" fill="white"/>
<path d="M473.361 223.253C473.253 223.254 473.148 223.221 473.06 223.159L327.101 121.526C326.657 121.218 326.129 121.054 325.589 121.055C325.048 121.056 324.521 121.222 324.078 121.531L179.17 223.158C179.114 223.198 179.05 223.226 178.982 223.241C178.914 223.256 178.844 223.258 178.776 223.246C178.708 223.234 178.642 223.208 178.584 223.171C178.525 223.134 178.475 223.086 178.435 223.029C178.395 222.972 178.367 222.908 178.352 222.84C178.337 222.773 178.335 222.703 178.347 222.635C178.359 222.566 178.385 222.501 178.422 222.443C178.459 222.384 178.507 222.333 178.564 222.294L323.472 120.667C324.092 120.234 324.83 120.001 325.587 120C326.344 119.999 327.082 120.229 327.704 120.66L473.663 222.293C473.755 222.357 473.825 222.449 473.861 222.555C473.897 222.662 473.899 222.777 473.865 222.884C473.831 222.991 473.764 223.085 473.673 223.151C473.583 223.218 473.473 223.253 473.361 223.253L473.361 223.253Z" fill="#3F3D56"/>
<path d="M187.451 226.856L325.732 124.39L465.062 234.147L332.856 312.507L261.08 296.149L187.451 226.856Z" fill="#E6E6E6"/>
<path d="M267.139 360.907H198.825C198.405 360.908 197.99 360.825 197.602 360.665C197.214 360.505 196.862 360.27 196.565 359.974C196.268 359.677 196.033 359.326 195.872 358.938C195.712 358.551 195.629 358.135 195.629 357.716C195.629 357.297 195.712 356.881 195.872 356.494C196.033 356.106 196.268 355.754 196.565 355.458C196.862 355.162 197.214 354.927 197.602 354.767C197.99 354.606 198.405 354.524 198.825 354.525H267.139C267.558 354.524 267.974 354.606 268.362 354.767C268.749 354.927 269.102 355.162 269.398 355.458C269.695 355.754 269.931 356.106 270.091 356.494C270.252 356.881 270.335 357.297 270.335 357.716C270.335 358.135 270.252 358.551 270.091 358.938C269.931 359.326 269.695 359.677 269.398 359.974C269.102 360.27 268.749 360.505 268.362 360.665C267.974 360.825 267.558 360.908 267.139 360.907Z" fill="#FFFF37"/>
<path d="M223.334 347.187H198.825C198.405 347.188 197.99 347.106 197.602 346.946C197.214 346.785 196.862 346.55 196.565 346.254C196.268 345.958 196.033 345.606 195.872 345.218C195.712 344.831 195.629 344.416 195.629 343.996C195.629 343.577 195.712 343.162 195.872 342.774C196.033 342.387 196.268 342.035 196.565 341.738C196.862 341.442 197.214 341.207 197.602 341.047C197.99 340.887 198.405 340.805 198.825 340.805H223.334C223.754 340.805 224.169 340.887 224.557 341.047C224.945 341.207 225.297 341.442 225.594 341.738C225.891 342.035 226.126 342.387 226.287 342.774C226.447 343.162 226.53 343.577 226.53 343.996C226.53 344.416 226.447 344.831 226.287 345.218C226.126 345.606 225.891 345.958 225.594 346.254C225.297 346.55 224.945 346.785 224.557 346.946C224.169 347.106 223.754 347.188 223.334 347.187Z" fill="#FFFF37"/>
<path d="M327.676 283.928C327.157 283.929 326.643 283.828 326.162 283.632L240.88 248.252V137.506C240.881 136.526 241.271 135.587 241.963 134.895C242.656 134.202 243.595 133.813 244.574 133.812H408.182C409.162 133.813 410.101 134.202 410.793 134.895C411.486 135.587 411.875 136.526 411.876 137.506V248.329L411.716 248.397L329.237 283.615C328.743 283.822 328.212 283.929 327.676 283.928Z" fill="white"/>
<path d="M327.676 284.192C327.123 284.193 326.574 284.085 326.061 283.876L240.616 248.428V137.505C240.617 136.456 241.034 135.45 241.776 134.708C242.518 133.966 243.525 133.549 244.574 133.548H408.182C409.231 133.549 410.237 133.966 410.979 134.708C411.722 135.45 412.139 136.456 412.14 137.505V248.503L329.34 283.857C328.813 284.079 328.248 284.192 327.676 284.192ZM241.671 247.723L326.464 282.9C327.255 283.221 328.141 283.216 328.928 282.886L411.085 247.806V137.505C411.084 136.736 410.778 135.998 410.233 135.454C409.689 134.91 408.951 134.604 408.182 134.603H244.574C243.804 134.604 243.067 134.91 242.522 135.454C241.978 135.998 241.672 136.736 241.671 137.505V247.723Z" fill="#3F3D56"/>
<path d="M472.306 222.198H472.2L411.613 248.065L328.716 283.456C328.392 283.592 328.045 283.664 327.693 283.665C327.342 283.667 326.994 283.6 326.668 283.467L241.144 247.991L179.068 222.24L178.973 222.198H178.867C177.888 222.199 176.949 222.589 176.256 223.281C175.564 223.974 175.174 224.912 175.173 225.892V386.306C175.174 387.285 175.564 388.224 176.256 388.917C176.949 389.609 177.888 389.999 178.867 390H472.306C473.285 389.999 474.224 389.609 474.917 388.917C475.61 388.224 475.999 387.285 476 386.306V225.892C475.999 224.912 475.61 223.974 474.917 223.281C474.224 222.589 473.285 222.199 472.306 222.198ZM474.945 386.306C474.944 387.006 474.666 387.677 474.171 388.171C473.677 388.666 473.006 388.944 472.306 388.945H178.867C178.167 388.944 177.496 388.666 177.002 388.171C176.507 387.677 176.229 387.006 176.228 386.306V225.892C176.229 225.209 176.494 224.554 176.967 224.062C177.44 223.571 178.085 223.281 178.767 223.253L241.144 249.131L326.262 284.443C327.184 284.818 328.216 284.812 329.133 284.427L411.613 249.21L472.411 223.253C473.092 223.283 473.735 223.573 474.207 224.065C474.679 224.556 474.943 225.211 474.945 225.892V386.306Z" fill="#3F3D56"/>
<path d="M314.4 175.209H256.345C255.225 175.209 254.151 174.764 253.36 173.973C252.568 173.181 252.123 172.107 252.123 170.988C252.123 169.868 252.568 168.794 253.36 168.003C254.151 167.211 255.225 166.766 256.345 166.766H314.4C315.519 166.766 316.593 167.211 317.385 168.003C318.177 168.794 318.622 169.868 318.622 170.988C318.622 172.107 318.177 173.181 317.385 173.973C316.593 174.764 315.519 175.209 314.4 175.209Z" fill="#FFFF37"/>
<path d="M284.317 157.268H256.345C255.225 157.268 254.151 156.823 253.36 156.032C252.568 155.24 252.123 154.166 252.123 153.047C252.123 151.927 252.568 150.853 253.36 150.062C254.151 149.27 255.225 148.825 256.345 148.825H284.317C285.437 148.825 286.511 149.27 287.302 150.062C288.094 150.853 288.539 151.927 288.539 153.047C288.539 154.166 288.094 155.24 287.302 156.032C286.511 156.823 285.437 157.268 284.317 157.268Z" fill="#FFFF37"/>
<path d="M369.798 217.423H281.133C280.013 217.423 278.94 216.979 278.148 216.187C277.356 215.395 276.911 214.321 276.911 213.202C276.911 212.082 277.356 211.009 278.148 210.217C278.94 209.425 280.013 208.98 281.133 208.98H369.798C370.918 208.98 371.992 209.425 372.784 210.217C373.575 211.009 374.02 212.082 374.02 213.202C374.02 214.321 373.575 215.395 372.784 216.187C371.992 216.979 370.918 217.423 369.798 217.423Z" fill="#CCCCCC"/>
<path d="M369.798 236.948H281.133C280.013 236.948 278.94 236.503 278.148 235.711C277.356 234.919 276.911 233.846 276.911 232.726C276.911 231.606 277.356 230.533 278.148 229.741C278.94 228.949 280.013 228.505 281.133 228.505H369.798C370.918 228.505 371.992 228.949 372.784 229.741C373.575 230.533 374.02 231.606 374.02 232.726C374.02 233.846 373.575 234.919 372.784 235.711C371.992 236.503 370.918 236.948 369.798 236.948Z" fill="#CCCCCC"/>
<path d="M106.611 241.882C106.063 241.882 105.531 241.691 105.107 241.343C104.683 240.996 104.392 240.512 104.283 239.975L102.363 230.403C101.344 225.326 102.385 220.052 105.255 215.742C108.126 211.432 112.591 208.439 117.669 207.42C122.747 206.402 128.021 207.442 132.332 210.312C136.643 213.182 139.637 217.647 140.655 222.724L142.575 232.296C142.698 232.913 142.572 233.554 142.223 234.078C141.874 234.602 141.331 234.966 140.714 235.091L107.079 241.836C106.925 241.867 106.768 241.882 106.611 241.882Z" fill="#2F2E41"/>
<path d="M166.323 384.398L160.289 384.398L157.42 361.129L166.325 361.13L166.323 384.398Z" fill="#A0616A"/>
<path d="M155.979 382.674H167.615V389.999H148.653C148.653 388.056 149.425 386.193 150.799 384.819C152.173 383.446 154.036 382.674 155.979 382.674Z" fill="#2F2E41"/>
<path d="M103.456 384.337L97.8999 381.985L104.332 359.439L112.532 362.912L103.456 384.337Z" fill="#A0616A"/>
<path d="M94.6037 378.717L105.318 383.255L102.461 390L85.0001 382.606C85.3753 381.72 85.9214 380.917 86.6071 380.242C87.2928 379.567 88.1047 379.034 88.9965 378.673C89.8883 378.312 90.8424 378.13 91.8045 378.138C92.7666 378.145 93.7178 378.342 94.6037 378.717Z" fill="#2F2E41"/>
<path d="M122.062 239.484C129.221 239.484 135.024 233.681 135.024 226.524C135.024 219.366 129.221 213.563 122.062 213.563C114.903 213.563 109.099 219.366 109.099 226.524C109.099 233.681 114.903 239.484 122.062 239.484Z" fill="#A0616A"/>
<path d="M122.675 285.482L122.542 285.05C119.01 273.571 115.359 261.706 111.703 250.421L111.604 250.116L111.829 249.888C117.504 244.116 128.135 241.814 136.559 244.534C145.037 247.271 150.88 254.946 150.149 262.388C149.761 266.859 150.962 271.324 153.542 274.996L153.88 275.487L153.351 275.763C143.881 280.635 133.665 283.898 123.123 285.417L122.675 285.482Z" fill="#3F3D56"/>
<path d="M107.042 380.157C106.579 380.156 106.126 380.033 105.726 379.801L98.7237 375.758C98.1493 375.431 97.7198 374.898 97.5211 374.267C97.3225 373.637 97.3692 372.954 97.6521 372.357L113.211 335.444L125.102 281.608L146.773 273.73L146.97 273.82C170.203 284.491 168.407 360.975 167.811 376.198C167.784 376.839 167.525 377.448 167.083 377.911C166.64 378.375 166.044 378.662 165.405 378.719L158.889 379.57C158.226 379.628 157.566 379.437 157.038 379.033C156.509 378.629 156.151 378.042 156.034 377.387L142.731 317.942C142.717 317.829 142.668 317.723 142.589 317.641C142.511 317.558 142.408 317.503 142.296 317.484C142.189 317.463 142.078 317.477 141.979 317.524C141.88 317.571 141.799 317.648 141.746 317.744L109.349 378.804C109.179 379.11 108.948 379.38 108.672 379.596C108.395 379.812 108.078 379.971 107.74 380.062C107.512 380.124 107.278 380.156 107.042 380.157Z" fill="#2F2E41"/>
<path d="M114.825 325.908C115.234 325.311 115.507 324.632 115.626 323.919C115.744 323.205 115.704 322.474 115.51 321.777C115.315 321.081 114.97 320.435 114.499 319.886C114.027 319.337 113.441 318.899 112.782 318.601L113.137 307.299L106.32 305.409L106.044 321.376C105.616 322.516 105.622 323.774 106.061 324.91C106.499 326.047 107.338 326.983 108.421 327.541C109.503 328.1 110.753 328.242 111.933 327.941C113.114 327.64 114.142 326.917 114.825 325.908H114.825Z" fill="#A0616A"/>
<path d="M106.144 313.962L105.744 313.96C105.085 313.955 104.451 313.703 103.97 313.252C103.488 312.802 103.194 312.186 103.146 311.529C102.492 303.112 100.485 274.44 102.101 258.896C102.316 257.445 102.819 256.052 103.581 254.8C104.344 253.547 105.35 252.46 106.541 251.604C107.731 250.747 109.081 250.138 110.511 249.813C111.941 249.487 113.422 249.452 114.866 249.71L115.282 249.802L115.279 250.228C115.131 270.68 115.14 291.012 115.149 310.676C115.151 311.276 114.947 311.859 114.573 312.328C114.198 312.797 113.674 313.124 113.088 313.256C110.804 313.728 108.477 313.965 106.144 313.962Z" fill="#FFFF37"/>
<path d="M121.662 338.49C119.917 338.483 118.235 337.839 116.931 336.68C115.626 335.521 114.79 333.926 114.578 332.194L115.152 284.992L105.769 261.263C105.374 258.146 106.044 254.986 107.672 252.298C109.299 249.61 111.787 247.551 114.733 246.454L117.241 245.514C117.715 245.336 118.219 245.254 118.725 245.271C119.231 245.289 119.729 245.407 120.189 245.617C120.65 245.827 121.064 246.126 121.408 246.497C121.753 246.868 122.021 247.303 122.197 247.778L131.872 273.897L131.874 273.935C132.545 284.33 135.573 336.069 129.536 337.612C126.978 338.211 124.358 338.506 121.731 338.49L121.662 338.49Z" fill="#FFFF37"/>
<path d="M177.403 308.087C176.733 307.816 176.13 307.4 175.637 306.87C175.145 306.34 174.775 305.709 174.553 305.02C174.331 304.332 174.263 303.603 174.353 302.885C174.443 302.167 174.69 301.478 175.075 300.866L168.544 291.635L173.187 286.299L182.227 299.464C183.212 300.18 183.901 301.232 184.163 302.422C184.424 303.611 184.24 304.855 183.646 305.918C183.051 306.981 182.087 307.789 180.937 308.189C179.786 308.589 178.529 308.552 177.403 308.087H177.403Z" fill="#A0616A"/>
<path d="M170.882 296.224C170.541 296.214 170.207 296.122 169.909 295.956C169.611 295.79 169.357 295.555 169.169 295.27L169.134 295.218C158.328 278.865 147.154 261.956 135.829 245.099L135.708 244.917L135.863 244.764C136.857 243.837 138.027 243.12 139.305 242.657C140.582 242.194 141.94 241.994 143.297 242.069C144.693 242.094 146.069 242.414 147.334 243.007C148.598 243.6 149.724 244.453 150.636 245.511C160.533 257.55 174.657 282.538 178.75 289.91C179.008 290.368 179.085 290.906 178.964 291.417C178.843 291.929 178.534 292.376 178.099 292.67C176.089 294.038 173.936 295.183 171.678 296.085C171.425 296.185 171.154 296.232 170.882 296.224Z" fill="#FFFF37"/>
<path d="M167.254 327.97C160.781 327.974 137.623 283.39 133.046 274.453L133.007 274.345L127.944 246.996C127.852 246.498 127.859 245.987 127.965 245.492C128.071 244.998 128.273 244.528 128.561 244.112C128.849 243.696 129.216 243.34 129.641 243.066C130.067 242.792 130.542 242.604 131.04 242.514L133.677 242.037C136.768 241.471 139.96 241.966 142.735 243.442C145.509 244.917 147.704 247.288 148.961 250.167L155.577 277.969L177.697 315.546C178.423 317.156 178.53 318.978 177.997 320.661C177.463 322.345 176.327 323.773 174.806 324.671C172.558 326.031 170.157 327.119 167.652 327.914C167.523 327.952 167.389 327.971 167.254 327.97H167.254Z" fill="#FFFF37"/>
<path d="M132.129 226.636H106.005V223.47C106.009 219.972 107.4 216.619 109.874 214.146C112.347 211.673 115.701 210.282 119.199 210.278H121.31C124.808 210.282 128.162 211.673 130.635 214.146C133.109 216.619 134.5 219.972 134.504 223.47V224.261C134.504 224.891 134.253 225.494 133.808 225.939C133.363 226.385 132.759 226.635 132.129 226.636Z" fill="#2F2E41"/>
</g>
<defs>
<clipPath id="clip0_59_7">
<rect width="391" height="270" fill="white" transform="translate(85 120)"/>
</clipPath>
</defs>
</svg>
