<svg width="140" height="148" viewBox="0 0 140 148" fill="none" xmlns="http://www.w3.org/2000/svg">
<path d="M23.8171 11.4249C23.8171 17.7347 18.6574 22.8497 12.2927 22.8497C5.92794 22.8497 0.768293 17.7347 0.768293 11.4249C0.768293 5.11509 5.92794 0 12.2927 0C18.6574 0 23.8171 5.11509 23.8171 11.4249Z" fill="white"/>
<path d="M23.8171 49.5078C23.8171 55.8176 18.6574 60.9326 12.2927 60.9326C5.92794 60.9326 0.768293 55.8176 0.768293 49.5078C0.768293 43.198 5.92794 38.0829 12.2927 38.0829C18.6574 38.0829 23.8171 43.198 23.8171 49.5078Z" fill="white"/>
<path d="M62.2317 11.4249C62.2317 17.7347 57.0721 22.8497 50.7073 22.8497C44.3426 22.8497 39.1829 17.7347 39.1829 11.4249C39.1829 5.11509 44.3426 0 50.7073 0C57.0721 0 62.2317 5.11509 62.2317 11.4249Z" fill="white"/>
<path d="M62.2317 49.5078C62.2317 55.8176 57.0721 60.9326 50.7073 60.9326C44.3426 60.9326 39.1829 55.8176 39.1829 49.5078C39.1829 43.198 44.3426 38.0829 50.7073 38.0829C57.0721 38.0829 62.2317 43.198 62.2317 49.5078Z" fill="white"/>
<path fill-rule="evenodd" clip-rule="evenodd" d="M12.2927 86.0674C6.35225 86.0674 1.53659 90.8414 1.53659 96.7306C1.53659 102.62 6.35225 107.394 12.2927 107.394C18.2331 107.394 23.0488 102.62 23.0488 96.7306C23.0488 90.8414 18.2331 86.0674 12.2927 86.0674ZM0 96.7306C0 90.0001 5.50362 84.544 12.2927 84.544C19.0817 84.544 24.5854 90.0001 24.5854 96.7306C24.5854 103.461 19.0817 108.917 12.2927 108.917C5.50362 108.917 0 103.461 0 96.7306Z" fill="white"/>
<path fill-rule="evenodd" clip-rule="evenodd" d="M12.2927 124.15C6.35225 124.15 1.53659 128.924 1.53659 134.813C1.53659 140.703 6.35225 145.477 12.2927 145.477C18.2331 145.477 23.0488 140.703 23.0488 134.813C23.0488 128.924 18.2331 124.15 12.2927 124.15ZM0 134.813C0 128.083 5.50362 122.627 12.2927 122.627C19.0817 122.627 24.5854 128.083 24.5854 134.813C24.5854 141.544 19.0817 147 12.2927 147C5.50362 147 0 141.544 0 134.813Z" fill="white"/>
<path fill-rule="evenodd" clip-rule="evenodd" d="M50.7073 86.0674C44.7669 86.0674 39.9512 90.8414 39.9512 96.7306C39.9512 102.62 44.7669 107.394 50.7073 107.394C56.6477 107.394 61.4634 102.62 61.4634 96.7306C61.4634 90.8414 56.6477 86.0674 50.7073 86.0674ZM38.4146 96.7306C38.4146 90.0001 43.9183 84.544 50.7073 84.544C57.4964 84.544 63 90.0001 63 96.7306C63 103.461 57.4964 108.917 50.7073 108.917C43.9183 108.917 38.4146 103.461 38.4146 96.7306Z" fill="white"/>
<path fill-rule="evenodd" clip-rule="evenodd" d="M50.7073 124.15C44.7669 124.15 39.9512 128.924 39.9512 134.813C39.9512 140.703 44.7669 145.477 50.7073 145.477C56.6477 145.477 61.4634 140.703 61.4634 134.813C61.4634 128.924 56.6477 124.15 50.7073 124.15ZM38.4146 134.813C38.4146 128.083 43.9183 122.627 50.7073 122.627C57.4964 122.627 63 128.083 63 134.813C63 141.544 57.4964 147 50.7073 147C43.9183 147 38.4146 141.544 38.4146 134.813Z" fill="white"/>
<path d="M100.817 12.4249C100.817 18.7347 95.6574 23.8497 89.2927 23.8497C82.9279 23.8497 77.7683 18.7347 77.7683 12.4249C77.7683 6.11509 82.9279 1 89.2927 1C95.6574 1 100.817 6.11509 100.817 12.4249Z" fill="white"/>
<path d="M100.817 50.5078C100.817 56.8176 95.6574 61.9326 89.2927 61.9326C82.9279 61.9326 77.7683 56.8176 77.7683 50.5078C77.7683 44.198 82.9279 39.0829 89.2927 39.0829C95.6574 39.0829 100.817 44.198 100.817 50.5078Z" fill="white"/>
<path d="M139.232 12.4249C139.232 18.7347 134.072 23.8497 127.707 23.8497C121.343 23.8497 116.183 18.7347 116.183 12.4249C116.183 6.11509 121.343 1 127.707 1C134.072 1 139.232 6.11509 139.232 12.4249Z" fill="white"/>
<path d="M139.232 50.5078C139.232 56.8176 134.072 61.9326 127.707 61.9326C121.343 61.9326 116.183 56.8176 116.183 50.5078C116.183 44.198 121.343 39.0829 127.707 39.0829C134.072 39.0829 139.232 44.198 139.232 50.5078Z" fill="white"/>
<path fill-rule="evenodd" clip-rule="evenodd" d="M89.2927 87.0674C83.3523 87.0674 78.5366 91.8414 78.5366 97.7306C78.5366 103.62 83.3523 108.394 89.2927 108.394C95.2331 108.394 100.049 103.62 100.049 97.7306C100.049 91.8414 95.2331 87.0674 89.2927 87.0674ZM77 97.7306C77 91.0001 82.5036 85.544 89.2927 85.544C96.0817 85.544 101.585 91.0001 101.585 97.7306C101.585 104.461 96.0817 109.917 89.2927 109.917C82.5036 109.917 77 104.461 77 97.7306Z" fill="white"/>
<path fill-rule="evenodd" clip-rule="evenodd" d="M89.2927 125.15C83.3523 125.15 78.5366 129.924 78.5366 135.813C78.5366 141.703 83.3523 146.477 89.2927 146.477C95.2331 146.477 100.049 141.703 100.049 135.813C100.049 129.924 95.2331 125.15 89.2927 125.15ZM77 135.813C77 129.083 82.5036 123.627 89.2927 123.627C96.0817 123.627 101.585 129.083 101.585 135.813C101.585 142.544 96.0817 148 89.2927 148C82.5036 148 77 142.544 77 135.813Z" fill="white"/>
<path fill-rule="evenodd" clip-rule="evenodd" d="M127.707 87.0674C121.767 87.0674 116.951 91.8414 116.951 97.7306C116.951 103.62 121.767 108.394 127.707 108.394C133.648 108.394 138.463 103.62 138.463 97.7306C138.463 91.8414 133.648 87.0674 127.707 87.0674ZM115.415 97.7306C115.415 91.0001 120.918 85.544 127.707 85.544C134.496 85.544 140 91.0001 140 97.7306C140 104.461 134.496 109.917 127.707 109.917C120.918 109.917 115.415 104.461 115.415 97.7306Z" fill="white"/>
<path fill-rule="evenodd" clip-rule="evenodd" d="M127.707 125.15C121.767 125.15 116.951 129.924 116.951 135.813C116.951 141.703 121.767 146.477 127.707 146.477C133.648 146.477 138.463 141.703 138.463 135.813C138.463 129.924 133.648 125.15 127.707 125.15ZM115.415 135.813C115.415 129.083 120.918 123.627 127.707 123.627C134.496 123.627 140 129.083 140 135.813C140 142.544 134.496 148 127.707 148C120.918 148 115.415 142.544 115.415 135.813Z" fill="white"/>
</svg>
