<svg width="216" height="210" viewBox="0 0 216 210" fill="none" xmlns="http://www.w3.org/2000/svg">
<path d="M36.6707 -0.357513C36.6707 9.38616 28.7265 17.285 18.9268 17.285C9.12714 17.285 1.18293 9.38616 1.18293 -0.357513C1.18293 -10.1012 9.12714 -18 18.9268 -18C28.7265 -18 36.6707 -10.1012 36.6707 -0.357513Z" fill="#FFFF37"/>
<path d="M36.6707 58.4508C36.6707 68.1945 28.7265 76.0933 18.9268 76.0933C9.12714 76.0933 1.18293 68.1945 1.18293 58.4508C1.18293 48.7071 9.12714 40.8083 18.9268 40.8083C28.7265 40.8083 36.6707 48.7071 36.6707 58.4508Z" fill="#FFFF37"/>
<path d="M95.8171 -0.357513C95.8171 9.38616 87.8729 17.285 78.0732 17.285C68.2735 17.285 60.3293 9.38616 60.3293 -0.357513C60.3293 -10.1012 68.2735 -18 78.0732 -18C87.8729 -18 95.8171 -10.1012 95.8171 -0.357513Z" fill="#FFFF37"/>
<path d="M95.8171 58.4508C95.8171 68.1945 87.8729 76.0933 78.0732 76.0933C68.2735 76.0933 60.3293 68.1945 60.3293 58.4508C60.3293 48.7071 68.2735 40.8083 78.0732 40.8083C87.8729 40.8083 95.8171 48.7071 95.8171 58.4508Z" fill="#FFFF37"/>
<path fill-rule="evenodd" clip-rule="evenodd" d="M18.9268 114.907C9.78045 114.907 2.36585 122.279 2.36585 131.373C2.36585 140.467 9.78045 147.839 18.9268 147.839C28.0732 147.839 35.4878 140.467 35.4878 131.373C35.4878 122.279 28.0732 114.907 18.9268 114.907ZM0 131.373C0 120.98 8.47383 112.554 18.9268 112.554C29.3798 112.554 37.8537 120.98 37.8537 131.373C37.8537 141.766 29.3798 150.192 18.9268 150.192C8.47383 150.192 0 141.766 0 131.373Z" fill="#FFFF37"/>
<path fill-rule="evenodd" clip-rule="evenodd" d="M18.9268 173.715C9.78045 173.715 2.36585 181.087 2.36585 190.181C2.36585 199.275 9.78045 206.648 18.9268 206.648C28.0732 206.648 35.4878 199.275 35.4878 190.181C35.4878 181.087 28.0732 173.715 18.9268 173.715ZM0 190.181C0 179.788 8.47383 171.363 18.9268 171.363C29.3798 171.363 37.8537 179.788 37.8537 190.181C37.8537 200.575 29.3798 209 18.9268 209C8.47383 209 0 200.575 0 190.181Z" fill="#FFFF37"/>
<path fill-rule="evenodd" clip-rule="evenodd" d="M78.0732 114.907C68.9268 114.907 61.5122 122.279 61.5122 131.373C61.5122 140.467 68.9268 147.839 78.0732 147.839C87.2195 147.839 94.6341 140.467 94.6341 131.373C94.6341 122.279 87.2195 114.907 78.0732 114.907ZM59.1463 131.373C59.1463 120.98 67.6202 112.554 78.0732 112.554C88.5262 112.554 97 120.98 97 131.373C97 141.766 88.5262 150.192 78.0732 150.192C67.6202 150.192 59.1463 141.766 59.1463 131.373Z" fill="#FFFF37"/>
<path fill-rule="evenodd" clip-rule="evenodd" d="M78.0732 173.715C68.9268 173.715 61.5122 181.087 61.5122 190.181C61.5122 199.275 68.9268 206.648 78.0732 206.648C87.2195 206.648 94.6341 199.275 94.6341 190.181C94.6341 181.087 87.2195 173.715 78.0732 173.715ZM59.1463 190.181C59.1463 179.788 67.6202 171.363 78.0732 171.363C88.5262 171.363 97 179.788 97 190.181C97 200.575 88.5262 209 78.0732 209C67.6202 209 59.1463 200.575 59.1463 190.181Z" fill="#FFFF37"/>
<path d="M155.671 0.642487C155.671 10.3862 147.727 18.285 137.927 18.285C128.127 18.285 120.183 10.3862 120.183 0.642487C120.183 -9.10119 128.127 -17 137.927 -17C147.727 -17 155.671 -9.10119 155.671 0.642487Z" fill="#FFFF37"/>
<path d="M155.671 59.4508C155.671 69.1945 147.727 77.0933 137.927 77.0933C128.127 77.0933 120.183 69.1945 120.183 59.4508C120.183 49.7071 128.127 41.8083 137.927 41.8083C147.727 41.8083 155.671 49.7071 155.671 59.4508Z" fill="#FFFF37"/>
<path d="M214.817 0.642487C214.817 10.3862 206.873 18.285 197.073 18.285C187.273 18.285 179.329 10.3862 179.329 0.642487C179.329 -9.10119 187.273 -17 197.073 -17C206.873 -17 214.817 -9.10119 214.817 0.642487Z" fill="#FFFF37"/>
<path d="M214.817 59.4508C214.817 69.1945 206.873 77.0933 197.073 77.0933C187.273 77.0933 179.329 69.1945 179.329 59.4508C179.329 49.7071 187.273 41.8083 197.073 41.8083C206.873 41.8083 214.817 49.7071 214.817 59.4508Z" fill="#FFFF37"/>
<path fill-rule="evenodd" clip-rule="evenodd" d="M137.927 115.907C128.78 115.907 121.366 123.279 121.366 132.373C121.366 141.467 128.78 148.839 137.927 148.839C147.073 148.839 154.488 141.467 154.488 132.373C154.488 123.279 147.073 115.907 137.927 115.907ZM119 132.373C119 121.98 127.474 113.554 137.927 113.554C148.38 113.554 156.854 121.98 156.854 132.373C156.854 142.766 148.38 151.192 137.927 151.192C127.474 151.192 119 142.766 119 132.373Z" fill="#FFFF37"/>
<path fill-rule="evenodd" clip-rule="evenodd" d="M137.927 174.715C128.78 174.715 121.366 182.087 121.366 191.181C121.366 200.275 128.78 207.648 137.927 207.648C147.073 207.648 154.488 200.275 154.488 191.181C154.488 182.087 147.073 174.715 137.927 174.715ZM119 191.181C119 180.788 127.474 172.363 137.927 172.363C148.38 172.363 156.854 180.788 156.854 191.181C156.854 201.575 148.38 210 137.927 210C127.474 210 119 201.575 119 191.181Z" fill="#FFFF37"/>
<path fill-rule="evenodd" clip-rule="evenodd" d="M197.073 115.907C187.927 115.907 180.512 123.279 180.512 132.373C180.512 141.467 187.927 148.839 197.073 148.839C206.22 148.839 213.634 141.467 213.634 132.373C213.634 123.279 206.22 115.907 197.073 115.907ZM178.146 132.373C178.146 121.98 186.62 113.554 197.073 113.554C207.526 113.554 216 121.98 216 132.373C216 142.766 207.526 151.192 197.073 151.192C186.62 151.192 178.146 142.766 178.146 132.373Z" fill="#FFFF37"/>
<path fill-rule="evenodd" clip-rule="evenodd" d="M197.073 174.715C187.927 174.715 180.512 182.087 180.512 191.181C180.512 200.275 187.927 207.648 197.073 207.648C206.22 207.648 213.634 200.275 213.634 191.181C213.634 182.087 206.22 174.715 197.073 174.715ZM178.146 191.181C178.146 180.788 186.62 172.363 197.073 172.363C207.526 172.363 216 180.788 216 191.181C216 201.575 207.526 210 197.073 210C186.62 210 178.146 201.575 178.146 191.181Z" fill="#FFFF37"/>
</svg>
