<svg width="200" height="106" viewBox="0 0 200 106" fill="none" xmlns="http://www.w3.org/2000/svg">
<path d="M34.0244 16.3212C34.0244 25.3352 26.6535 32.6425 17.561 32.6425C8.46848 32.6425 1.09756 25.3352 1.09756 16.3212C1.09756 7.30727 8.46848 0 17.561 0C26.6535 0 34.0244 7.30727 34.0244 16.3212Z" fill="#3737FF"/>
<path d="M34.0244 70.7254C34.0244 79.7394 26.6535 87.0466 17.561 87.0466C8.46848 87.0466 1.09756 79.7394 1.09756 70.7254C1.09756 61.7114 8.46848 54.4041 17.561 54.4041C26.6535 54.4041 34.0244 61.7114 34.0244 70.7254Z" fill="#3737FF"/>
<path d="M88.9024 16.3212C88.9024 25.3352 81.5315 32.6425 72.439 32.6425C63.3465 32.6425 55.9756 25.3352 55.9756 16.3212C55.9756 7.30727 63.3465 0 72.439 0C81.5315 0 88.9024 7.30727 88.9024 16.3212Z" fill="#3737FF"/>
<path d="M88.9024 70.7254C88.9024 79.7394 81.5315 87.0466 72.439 87.0466C63.3465 87.0466 55.9756 79.7394 55.9756 70.7254C55.9756 61.7114 63.3465 54.4041 72.439 54.4041C81.5315 54.4041 88.9024 61.7114 88.9024 70.7254Z" fill="#3737FF"/>
<path fill-rule="evenodd" clip-rule="evenodd" d="M17.561 122.953C9.07465 122.953 2.19512 129.773 2.19512 138.187C2.19512 146.6 9.07465 153.42 17.561 153.42C26.0473 153.42 32.9268 146.6 32.9268 138.187C32.9268 129.773 26.0473 122.953 17.561 122.953ZM0 138.187C0 128.572 7.86232 120.777 17.561 120.777C27.2596 120.777 35.122 128.572 35.122 138.187C35.122 147.801 27.2596 155.596 17.561 155.596C7.86232 155.596 0 147.801 0 138.187Z" fill="#3F37FF"/>
<path fill-rule="evenodd" clip-rule="evenodd" d="M17.561 177.358C9.07465 177.358 2.19512 184.178 2.19512 192.591C2.19512 201.004 9.07465 207.824 17.561 207.824C26.0473 207.824 32.9268 201.004 32.9268 192.591C32.9268 184.178 26.0473 177.358 17.561 177.358ZM0 192.591C0 182.976 7.86232 175.181 17.561 175.181C27.2596 175.181 35.122 182.976 35.122 192.591C35.122 202.206 27.2596 210 17.561 210C7.86232 210 0 202.206 0 192.591Z" fill="#3F37FF"/>
<path fill-rule="evenodd" clip-rule="evenodd" d="M72.439 122.953C63.9527 122.953 57.0732 129.773 57.0732 138.187C57.0732 146.6 63.9527 153.42 72.439 153.42C80.9254 153.42 87.8049 146.6 87.8049 138.187C87.8049 129.773 80.9254 122.953 72.439 122.953ZM54.8781 138.187C54.8781 128.572 62.7404 120.777 72.439 120.777C82.1377 120.777 90 128.572 90 138.187C90 147.801 82.1377 155.596 72.439 155.596C62.7404 155.596 54.8781 147.801 54.8781 138.187Z" fill="#3F37FF"/>
<path fill-rule="evenodd" clip-rule="evenodd" d="M72.439 177.358C63.9527 177.358 57.0732 184.178 57.0732 192.591C57.0732 201.004 63.9527 207.824 72.439 207.824C80.9254 207.824 87.8049 201.004 87.8049 192.591C87.8049 184.178 80.9254 177.358 72.439 177.358ZM54.8781 192.591C54.8781 182.976 62.7404 175.181 72.439 175.181C82.1377 175.181 90 182.976 90 192.591C90 202.206 82.1377 210 72.439 210C62.7404 210 54.8781 202.206 54.8781 192.591Z" fill="#3F37FF"/>
<path d="M144.024 17.3212C144.024 26.3352 136.653 33.6425 127.561 33.6425C118.468 33.6425 111.098 26.3352 111.098 17.3212C111.098 8.30727 118.468 1 127.561 1C136.653 1 144.024 8.30727 144.024 17.3212Z" fill="#3737FF"/>
<path d="M144.024 71.7254C144.024 80.7394 136.653 88.0466 127.561 88.0466C118.468 88.0466 111.098 80.7394 111.098 71.7254C111.098 62.7114 118.468 55.4041 127.561 55.4041C136.653 55.4041 144.024 62.7114 144.024 71.7254Z" fill="#3737FF"/>
<path d="M198.902 17.3212C198.902 26.3352 191.532 33.6425 182.439 33.6425C173.347 33.6425 165.976 26.3352 165.976 17.3212C165.976 8.30727 173.347 1 182.439 1C191.532 1 198.902 8.30727 198.902 17.3212Z" fill="#3737FF"/>
<path d="M198.902 71.7254C198.902 80.7394 191.532 88.0466 182.439 88.0466C173.347 88.0466 165.976 80.7394 165.976 71.7254C165.976 62.7114 173.347 55.4041 182.439 55.4041C191.532 55.4041 198.902 62.7114 198.902 71.7254Z" fill="#3737FF"/>
<path fill-rule="evenodd" clip-rule="evenodd" d="M127.561 123.953C119.075 123.953 112.195 130.773 112.195 139.187C112.195 147.6 119.075 154.42 127.561 154.42C136.047 154.42 142.927 147.6 142.927 139.187C142.927 130.773 136.047 123.953 127.561 123.953ZM110 139.187C110 129.572 117.862 121.777 127.561 121.777C137.26 121.777 145.122 129.572 145.122 139.187C145.122 148.801 137.26 156.596 127.561 156.596C117.862 156.596 110 148.801 110 139.187Z" fill="#3737FF"/>
<path fill-rule="evenodd" clip-rule="evenodd" d="M127.561 178.358C119.075 178.358 112.195 185.178 112.195 193.591C112.195 202.004 119.075 208.824 127.561 208.824C136.047 208.824 142.927 202.004 142.927 193.591C142.927 185.178 136.047 178.358 127.561 178.358ZM110 193.591C110 183.976 117.862 176.181 127.561 176.181C137.26 176.181 145.122 183.976 145.122 193.591C145.122 203.206 137.26 211 127.561 211C117.862 211 110 203.206 110 193.591Z" fill="#3737FF"/>
<path fill-rule="evenodd" clip-rule="evenodd" d="M182.439 123.953C173.953 123.953 167.073 130.773 167.073 139.187C167.073 147.6 173.953 154.42 182.439 154.42C190.925 154.42 197.805 147.6 197.805 139.187C197.805 130.773 190.925 123.953 182.439 123.953ZM164.878 139.187C164.878 129.572 172.74 121.777 182.439 121.777C192.138 121.777 200 129.572 200 139.187C200 148.801 192.138 156.596 182.439 156.596C172.74 156.596 164.878 148.801 164.878 139.187Z" fill="#3737FF"/>
<path fill-rule="evenodd" clip-rule="evenodd" d="M182.439 178.358C173.953 178.358 167.073 185.178 167.073 193.591C167.073 202.004 173.953 208.824 182.439 208.824C190.925 208.824 197.805 202.004 197.805 193.591C197.805 185.178 190.925 178.358 182.439 178.358ZM164.878 193.591C164.878 183.976 172.74 176.181 182.439 176.181C192.138 176.181 200 183.976 200 193.591C200 203.206 192.138 211 182.439 211C172.74 211 164.878 203.206 164.878 193.591Z" fill="#3737FF"/>
</svg>
