<svg width="216" height="228" viewBox="0 0 216 228" fill="none" xmlns="http://www.w3.org/2000/svg">
<path d="M36.6707 17.6425C36.6707 27.3862 28.7265 35.285 18.9268 35.285C9.12714 35.285 1.18293 27.3862 1.18293 17.6425C1.18293 7.89881 9.12714 0 18.9268 0C28.7265 0 36.6707 7.89881 36.6707 17.6425Z" fill="#FFFF37"/>
<path d="M36.6707 76.4508C36.6707 86.1945 28.7265 94.0933 18.9268 94.0933C9.12714 94.0933 1.18293 86.1945 1.18293 76.4508C1.18293 66.7071 9.12714 58.8083 18.9268 58.8083C28.7265 58.8083 36.6707 66.7071 36.6707 76.4508Z" fill="#FFFF37"/>
<path d="M95.8171 17.6425C95.8171 27.3862 87.8729 35.285 78.0732 35.285C68.2735 35.285 60.3293 27.3862 60.3293 17.6425C60.3293 7.89881 68.2735 0 78.0732 0C87.8729 0 95.8171 7.89881 95.8171 17.6425Z" fill="#FFFF37"/>
<path d="M95.8171 76.4508C95.8171 86.1945 87.8729 94.0933 78.0732 94.0933C68.2735 94.0933 60.3293 86.1945 60.3293 76.4508C60.3293 66.7071 68.2735 58.8083 78.0732 58.8083C87.8729 58.8083 95.8171 66.7071 95.8171 76.4508Z" fill="#FFFF37"/>
<path fill-rule="evenodd" clip-rule="evenodd" d="M18.9268 132.907C9.78045 132.907 2.36585 140.279 2.36585 149.373C2.36585 158.467 9.78045 165.839 18.9268 165.839C28.0732 165.839 35.4878 158.467 35.4878 149.373C35.4878 140.279 28.0732 132.907 18.9268 132.907ZM0 149.373C0 138.98 8.47383 130.554 18.9268 130.554C29.3798 130.554 37.8537 138.98 37.8537 149.373C37.8537 159.766 29.3798 168.192 18.9268 168.192C8.47383 168.192 0 159.766 0 149.373Z" fill="#FFFF37"/>
<path fill-rule="evenodd" clip-rule="evenodd" d="M18.9268 191.715C9.78045 191.715 2.36585 199.087 2.36585 208.181C2.36585 217.275 9.78045 224.648 18.9268 224.648C28.0732 224.648 35.4878 217.275 35.4878 208.181C35.4878 199.087 28.0732 191.715 18.9268 191.715ZM0 208.181C0 197.788 8.47383 189.363 18.9268 189.363C29.3798 189.363 37.8537 197.788 37.8537 208.181C37.8537 218.575 29.3798 227 18.9268 227C8.47383 227 0 218.575 0 208.181Z" fill="#FFFF37"/>
<path fill-rule="evenodd" clip-rule="evenodd" d="M78.0732 132.907C68.9268 132.907 61.5122 140.279 61.5122 149.373C61.5122 158.467 68.9268 165.839 78.0732 165.839C87.2195 165.839 94.6341 158.467 94.6341 149.373C94.6341 140.279 87.2195 132.907 78.0732 132.907ZM59.1463 149.373C59.1463 138.98 67.6202 130.554 78.0732 130.554C88.5262 130.554 97 138.98 97 149.373C97 159.766 88.5262 168.192 78.0732 168.192C67.6202 168.192 59.1463 159.766 59.1463 149.373Z" fill="#FFFF37"/>
<path fill-rule="evenodd" clip-rule="evenodd" d="M78.0732 191.715C68.9268 191.715 61.5122 199.087 61.5122 208.181C61.5122 217.275 68.9268 224.648 78.0732 224.648C87.2195 224.648 94.6341 217.275 94.6341 208.181C94.6341 199.087 87.2195 191.715 78.0732 191.715ZM59.1463 208.181C59.1463 197.788 67.6202 189.363 78.0732 189.363C88.5262 189.363 97 197.788 97 208.181C97 218.575 88.5262 227 78.0732 227C67.6202 227 59.1463 218.575 59.1463 208.181Z" fill="#FFFF37"/>
<path d="M155.671 18.6425C155.671 28.3862 147.727 36.285 137.927 36.285C128.127 36.285 120.183 28.3862 120.183 18.6425C120.183 8.89881 128.127 1 137.927 1C147.727 1 155.671 8.89881 155.671 18.6425Z" fill="#FFFF37"/>
<path d="M155.671 77.4508C155.671 87.1945 147.727 95.0933 137.927 95.0933C128.127 95.0933 120.183 87.1945 120.183 77.4508C120.183 67.7071 128.127 59.8083 137.927 59.8083C147.727 59.8083 155.671 67.7071 155.671 77.4508Z" fill="#FFFF37"/>
<path d="M214.817 18.6425C214.817 28.3862 206.873 36.285 197.073 36.285C187.273 36.285 179.329 28.3862 179.329 18.6425C179.329 8.89881 187.273 1 197.073 1C206.873 1 214.817 8.89881 214.817 18.6425Z" fill="#FFFF37"/>
<path d="M214.817 77.4508C214.817 87.1945 206.873 95.0933 197.073 95.0933C187.273 95.0933 179.329 87.1945 179.329 77.4508C179.329 67.7071 187.273 59.8083 197.073 59.8083C206.873 59.8083 214.817 67.7071 214.817 77.4508Z" fill="#FFFF37"/>
<path fill-rule="evenodd" clip-rule="evenodd" d="M137.927 133.907C128.78 133.907 121.366 141.279 121.366 150.373C121.366 159.467 128.78 166.839 137.927 166.839C147.073 166.839 154.488 159.467 154.488 150.373C154.488 141.279 147.073 133.907 137.927 133.907ZM119 150.373C119 139.98 127.474 131.554 137.927 131.554C148.38 131.554 156.854 139.98 156.854 150.373C156.854 160.766 148.38 169.192 137.927 169.192C127.474 169.192 119 160.766 119 150.373Z" fill="#FFFF37"/>
<path fill-rule="evenodd" clip-rule="evenodd" d="M137.927 192.715C128.78 192.715 121.366 200.087 121.366 209.181C121.366 218.275 128.78 225.648 137.927 225.648C147.073 225.648 154.488 218.275 154.488 209.181C154.488 200.087 147.073 192.715 137.927 192.715ZM119 209.181C119 198.788 127.474 190.363 137.927 190.363C148.38 190.363 156.854 198.788 156.854 209.181C156.854 219.575 148.38 228 137.927 228C127.474 228 119 219.575 119 209.181Z" fill="#FFFF37"/>
<path fill-rule="evenodd" clip-rule="evenodd" d="M197.073 133.907C187.927 133.907 180.512 141.279 180.512 150.373C180.512 159.467 187.927 166.839 197.073 166.839C206.22 166.839 213.634 159.467 213.634 150.373C213.634 141.279 206.22 133.907 197.073 133.907ZM178.146 150.373C178.146 139.98 186.62 131.554 197.073 131.554C207.526 131.554 216 139.98 216 150.373C216 160.766 207.526 169.192 197.073 169.192C186.62 169.192 178.146 160.766 178.146 150.373Z" fill="#FFFF37"/>
<path fill-rule="evenodd" clip-rule="evenodd" d="M197.073 192.715C187.927 192.715 180.512 200.087 180.512 209.181C180.512 218.275 187.927 225.648 197.073 225.648C206.22 225.648 213.634 218.275 213.634 209.181C213.634 200.087 206.22 192.715 197.073 192.715ZM178.146 209.181C178.146 198.788 186.62 190.363 197.073 190.363C207.526 190.363 216 198.788 216 209.181C216 219.575 207.526 228 197.073 228C186.62 228 178.146 219.575 178.146 209.181Z" fill="#FFFF37"/>
</svg>
