<svg width="1440" height="622" viewBox="0 0 1440 622" fill="none" xmlns="http://www.w3.org/2000/svg">
<path d="M459 283L519 304.3C579 326 699 368 819 411C939 454 1059 496 1179 501.7C1299 507 1419 475 1539 448.3C1659 422 1779 400 1839 389.7L1899 379V251H1839C1779 251 1659 251 1539 251C1419 251 1299 251 1179 251C1059 251 939 251 819 251C699 251 579 251 519 251H459V283Z" fill="#99C8E8"/>
<path d="M77.6633 402.739L139.228 418.971C200.826 435.602 323.905 467.469 447.068 500.332C570.23 533.196 693.309 565.062 813.367 560.755C933.392 556.049 1050.31 514.173 1167.67 477.578C1285.07 441.382 1402.82 409.471 1461.76 394.213L1520.66 378.556L1510 251L1450.21 255.994C1390.42 260.987 1270.84 270.975 1151.25 280.962C1031.67 290.95 912.086 300.937 792.502 310.925C672.918 320.912 553.335 330.9 433.751 340.887C314.167 350.875 194.584 360.862 134.792 365.856L74.9999 370.85L77.6633 402.739Z" fill="#4EA9E7"/>
<path d="M0 433L48 449C96 465 192 497 288 523.7C384 550 480 572 576 555.7C672 540 768 486 864 470.3C960 454 1056 476 1152 470.3C1248 465 1344 433 1392 417L1440 401H1392C1344 401 1248 401 1152 401C1056 401 960 401 864 401C768 401 672 401 576 401C480 401 384 401 288 401C192 401 96 401 48 401H0V433Z" fill="#3737FF"/>
<path d="M0 -16H1440V401H0V-16Z" fill="#3737FF"/>
</svg>
